<mxfile host="app.diagrams.net" modified="2023-04-10T06:58:33.613Z" agent="Mozilla/5.0 (Windows NT 10.0; Win64; x64) AppleWebKit/537.36 (KHTML, like Gecko) Chrome/111.0.0.0 Safari/537.36" etag="XFQR5u5N6OEGYso5LN4P" version="21.1.1" type="github">
  <diagram name="第 1 页" id="fYscVIPZmAdkVXhVgX3e">
    <mxGraphModel dx="1302" dy="698" grid="1" gridSize="10" guides="1" tooltips="1" connect="1" arrows="1" fold="1" page="1" pageScale="1" pageWidth="827" pageHeight="1169" math="0" shadow="0">
      <root>
        <mxCell id="0" />
        <mxCell id="1" parent="0" />
        <mxCell id="ILq4teFRkzYRY-haDb4g-1" value="IXIA" style="rounded=1;whiteSpace=wrap;html=1;fontFamily=Verdana;" vertex="1" parent="1">
          <mxGeometry x="470" y="160" width="190" height="90" as="geometry" />
        </mxCell>
        <mxCell id="ILq4teFRkzYRY-haDb4g-2" value="MC-56" style="rounded=1;whiteSpace=wrap;html=1;fontFamily=Verdana;" vertex="1" parent="1">
          <mxGeometry x="205" y="408.75" width="190" height="140" as="geometry" />
        </mxCell>
        <mxCell id="ILq4teFRkzYRY-haDb4g-4" value="MC-57" style="rounded=1;whiteSpace=wrap;html=1;fontFamily=Verdana;" vertex="1" parent="1">
          <mxGeometry x="770" y="408.75" width="190" height="140" as="geometry" />
        </mxCell>
        <mxCell id="ILq4teFRkzYRY-haDb4g-5" value="" style="rounded=0;whiteSpace=wrap;html=1;" vertex="1" parent="1">
          <mxGeometry x="375" y="440" width="40" height="10" as="geometry" />
        </mxCell>
        <mxCell id="ILq4teFRkzYRY-haDb4g-8" value="" style="rounded=0;whiteSpace=wrap;html=1;" vertex="1" parent="1">
          <mxGeometry x="375" y="485" width="40" height="10" as="geometry" />
        </mxCell>
        <mxCell id="ILq4teFRkzYRY-haDb4g-10" value="" style="rounded=0;whiteSpace=wrap;html=1;" vertex="1" parent="1">
          <mxGeometry x="375" y="462.5" width="40" height="10" as="geometry" />
        </mxCell>
        <mxCell id="ILq4teFRkzYRY-haDb4g-11" value="" style="rounded=0;whiteSpace=wrap;html=1;" vertex="1" parent="1">
          <mxGeometry x="375" y="507.5" width="40" height="10" as="geometry" />
        </mxCell>
        <mxCell id="ILq4teFRkzYRY-haDb4g-12" value="" style="rounded=0;whiteSpace=wrap;html=1;" vertex="1" parent="1">
          <mxGeometry x="750" y="440" width="40" height="10" as="geometry" />
        </mxCell>
        <mxCell id="ILq4teFRkzYRY-haDb4g-13" value="" style="rounded=0;whiteSpace=wrap;html=1;" vertex="1" parent="1">
          <mxGeometry x="750" y="485" width="40" height="10" as="geometry" />
        </mxCell>
        <mxCell id="ILq4teFRkzYRY-haDb4g-14" value="" style="rounded=0;whiteSpace=wrap;html=1;" vertex="1" parent="1">
          <mxGeometry x="750" y="462.5" width="40" height="10" as="geometry" />
        </mxCell>
        <mxCell id="ILq4teFRkzYRY-haDb4g-15" value="" style="rounded=0;whiteSpace=wrap;html=1;" vertex="1" parent="1">
          <mxGeometry x="750" y="507.5" width="40" height="10" as="geometry" />
        </mxCell>
        <mxCell id="ILq4teFRkzYRY-haDb4g-16" value="" style="rounded=0;whiteSpace=wrap;html=1;" vertex="1" parent="1">
          <mxGeometry x="450" y="188.75" width="40" height="10" as="geometry" />
        </mxCell>
        <mxCell id="ILq4teFRkzYRY-haDb4g-17" value="" style="rounded=0;whiteSpace=wrap;html=1;" vertex="1" parent="1">
          <mxGeometry x="450" y="211.25" width="40" height="10" as="geometry" />
        </mxCell>
        <mxCell id="ILq4teFRkzYRY-haDb4g-18" value="" style="rounded=0;whiteSpace=wrap;html=1;" vertex="1" parent="1">
          <mxGeometry x="640" y="188.75" width="40" height="10" as="geometry" />
        </mxCell>
        <mxCell id="ILq4teFRkzYRY-haDb4g-19" value="" style="rounded=0;whiteSpace=wrap;html=1;" vertex="1" parent="1">
          <mxGeometry x="640" y="211.25" width="40" height="10" as="geometry" />
        </mxCell>
        <mxCell id="ILq4teFRkzYRY-haDb4g-20" value="" style="rounded=0;whiteSpace=wrap;html=1;" vertex="1" parent="1">
          <mxGeometry x="185" y="452.5" width="40" height="10" as="geometry" />
        </mxCell>
        <mxCell id="ILq4teFRkzYRY-haDb4g-21" value="" style="rounded=0;whiteSpace=wrap;html=1;" vertex="1" parent="1">
          <mxGeometry x="185" y="475" width="40" height="10" as="geometry" />
        </mxCell>
        <mxCell id="ILq4teFRkzYRY-haDb4g-25" value="" style="rounded=0;whiteSpace=wrap;html=1;" vertex="1" parent="1">
          <mxGeometry x="940" y="450" width="40" height="10" as="geometry" />
        </mxCell>
        <mxCell id="ILq4teFRkzYRY-haDb4g-26" value="" style="rounded=0;whiteSpace=wrap;html=1;" vertex="1" parent="1">
          <mxGeometry x="940" y="472.5" width="40" height="10" as="geometry" />
        </mxCell>
        <mxCell id="ILq4teFRkzYRY-haDb4g-27" value="&lt;font style=&quot;font-size: 12px;&quot;&gt;Ethernet1&lt;/font&gt;" style="text;html=1;strokeColor=none;fillColor=none;align=center;verticalAlign=middle;whiteSpace=wrap;rounded=0;fontFamily=Verdana;fontSize=8;" vertex="1" parent="1">
          <mxGeometry x="420" y="435.63" width="70" height="18.75" as="geometry" />
        </mxCell>
        <mxCell id="ILq4teFRkzYRY-haDb4g-29" value="&lt;font style=&quot;font-size: 12px;&quot;&gt;Ethernet2&lt;/font&gt;" style="text;html=1;strokeColor=none;fillColor=none;align=center;verticalAlign=middle;whiteSpace=wrap;rounded=0;fontFamily=Verdana;fontSize=8;" vertex="1" parent="1">
          <mxGeometry x="420" y="458.12" width="70" height="18.75" as="geometry" />
        </mxCell>
        <mxCell id="ILq4teFRkzYRY-haDb4g-30" value="&lt;font style=&quot;font-size: 12px;&quot;&gt;Ethernet3&lt;/font&gt;" style="text;html=1;strokeColor=none;fillColor=none;align=center;verticalAlign=middle;whiteSpace=wrap;rounded=0;fontFamily=Verdana;fontSize=8;" vertex="1" parent="1">
          <mxGeometry x="420" y="480.63" width="70" height="18.75" as="geometry" />
        </mxCell>
        <mxCell id="ILq4teFRkzYRY-haDb4g-31" value="&lt;font style=&quot;font-size: 12px;&quot;&gt;Ethernet4&lt;/font&gt;" style="text;html=1;strokeColor=none;fillColor=none;align=center;verticalAlign=middle;whiteSpace=wrap;rounded=0;fontFamily=Verdana;fontSize=8;" vertex="1" parent="1">
          <mxGeometry x="420" y="503.12" width="70" height="18.75" as="geometry" />
        </mxCell>
        <mxCell id="ILq4teFRkzYRY-haDb4g-32" value="&lt;font style=&quot;font-size: 12px;&quot;&gt;Ethernet1&lt;/font&gt;" style="text;html=1;strokeColor=none;fillColor=none;align=center;verticalAlign=middle;whiteSpace=wrap;rounded=0;fontFamily=Verdana;fontSize=8;" vertex="1" parent="1">
          <mxGeometry x="670" y="434.38" width="70" height="18.75" as="geometry" />
        </mxCell>
        <mxCell id="ILq4teFRkzYRY-haDb4g-33" value="&lt;font style=&quot;font-size: 12px;&quot;&gt;Ethernet2&lt;/font&gt;" style="text;html=1;strokeColor=none;fillColor=none;align=center;verticalAlign=middle;whiteSpace=wrap;rounded=0;fontFamily=Verdana;fontSize=8;" vertex="1" parent="1">
          <mxGeometry x="670" y="456.87" width="70" height="18.75" as="geometry" />
        </mxCell>
        <mxCell id="ILq4teFRkzYRY-haDb4g-34" value="&lt;font style=&quot;font-size: 12px;&quot;&gt;Ethernet3&lt;/font&gt;" style="text;html=1;strokeColor=none;fillColor=none;align=center;verticalAlign=middle;whiteSpace=wrap;rounded=0;fontFamily=Verdana;fontSize=8;" vertex="1" parent="1">
          <mxGeometry x="670" y="479.38" width="70" height="18.75" as="geometry" />
        </mxCell>
        <mxCell id="ILq4teFRkzYRY-haDb4g-35" value="&lt;font style=&quot;font-size: 12px;&quot;&gt;Ethernet4&lt;/font&gt;" style="text;html=1;strokeColor=none;fillColor=none;align=center;verticalAlign=middle;whiteSpace=wrap;rounded=0;fontFamily=Verdana;fontSize=8;" vertex="1" parent="1">
          <mxGeometry x="670" y="501.87" width="70" height="18.75" as="geometry" />
        </mxCell>
        <mxCell id="ILq4teFRkzYRY-haDb4g-36" value="&lt;font style=&quot;font-size: 12px;&quot;&gt;1/47&lt;/font&gt;" style="text;html=1;strokeColor=none;fillColor=none;align=center;verticalAlign=middle;whiteSpace=wrap;rounded=0;fontFamily=Verdana;fontSize=8;" vertex="1" parent="1">
          <mxGeometry x="690" y="184.38" width="70" height="18.75" as="geometry" />
        </mxCell>
        <mxCell id="ILq4teFRkzYRY-haDb4g-37" value="&lt;font style=&quot;font-size: 12px;&quot;&gt;1/48&lt;/font&gt;" style="text;html=1;strokeColor=none;fillColor=none;align=center;verticalAlign=middle;whiteSpace=wrap;rounded=0;fontFamily=Verdana;fontSize=8;" vertex="1" parent="1">
          <mxGeometry x="690" y="206.87" width="70" height="18.75" as="geometry" />
        </mxCell>
        <mxCell id="ILq4teFRkzYRY-haDb4g-38" value="&lt;font style=&quot;font-size: 12px;&quot;&gt;1/45&lt;/font&gt;" style="text;html=1;strokeColor=none;fillColor=none;align=center;verticalAlign=middle;whiteSpace=wrap;rounded=0;fontFamily=Verdana;fontSize=8;" vertex="1" parent="1">
          <mxGeometry x="375" y="184.38" width="70" height="18.75" as="geometry" />
        </mxCell>
        <mxCell id="ILq4teFRkzYRY-haDb4g-39" value="1/46" style="text;html=1;strokeColor=none;fillColor=none;align=center;verticalAlign=middle;whiteSpace=wrap;rounded=0;fontFamily=Verdana;fontSize=8;" vertex="1" parent="1">
          <mxGeometry x="375" y="206.87" width="70" height="18.75" as="geometry" />
        </mxCell>
        <mxCell id="ILq4teFRkzYRY-haDb4g-40" value="&lt;font style=&quot;font-size: 12px;&quot;&gt;Ethernet7&lt;/font&gt;" style="text;html=1;strokeColor=none;fillColor=none;align=center;verticalAlign=middle;whiteSpace=wrap;rounded=0;fontFamily=Verdana;fontSize=8;" vertex="1" parent="1">
          <mxGeometry x="100" y="446.88" width="70" height="18.75" as="geometry" />
        </mxCell>
        <mxCell id="ILq4teFRkzYRY-haDb4g-41" value="&lt;font style=&quot;font-size: 12px;&quot;&gt;Ethernet8&lt;/font&gt;" style="text;html=1;strokeColor=none;fillColor=none;align=center;verticalAlign=middle;whiteSpace=wrap;rounded=0;fontFamily=Verdana;fontSize=8;" vertex="1" parent="1">
          <mxGeometry x="100" y="469.37" width="70" height="18.75" as="geometry" />
        </mxCell>
        <mxCell id="ILq4teFRkzYRY-haDb4g-42" value="&lt;font style=&quot;font-size: 12px;&quot;&gt;Ethernet7&lt;/font&gt;" style="text;html=1;strokeColor=none;fillColor=none;align=center;verticalAlign=middle;whiteSpace=wrap;rounded=0;fontFamily=Verdana;fontSize=8;" vertex="1" parent="1">
          <mxGeometry x="990" y="446.88" width="70" height="18.75" as="geometry" />
        </mxCell>
        <mxCell id="ILq4teFRkzYRY-haDb4g-43" value="&lt;font style=&quot;font-size: 12px;&quot;&gt;Ethernet8&lt;/font&gt;" style="text;html=1;strokeColor=none;fillColor=none;align=center;verticalAlign=middle;whiteSpace=wrap;rounded=0;fontFamily=Verdana;fontSize=8;" vertex="1" parent="1">
          <mxGeometry x="990" y="469.37" width="70" height="18.75" as="geometry" />
        </mxCell>
      </root>
    </mxGraphModel>
  </diagram>
</mxfile>
